<?xml version="1.0" standalone="no"?>
<!DOCTYPE svg PUBLIC "-//W3C//DTD SVG 20010904//EN"
 "http://www.w3.org/TR/2001/REC-SVG-20010904/DTD/svg10.dtd">
<svg version="1.0" xmlns="http://www.w3.org/2000/svg"
 width="6677.000000pt" height="6677.000000pt" viewBox="0 0 6677.000000 6677.000000"
 preserveAspectRatio="xMidYMid meet">
<metadata>
Created by potrace 1.14, written by Peter Selinger 2001-2017
</metadata>
<g transform="translate(0.000000,6677.000000) scale(0.100000,-0.100000)"
fill="#000000" stroke="none">
<path d="M8252 50892 c-964 -969 -1978 -1988 -4816 -4835 -1045 -1050 -1902
-1910 -1903 -1911 -1 -1 48 -54 110 -118 210 -217 612 -631 692 -713 265 -274
584 -602 655 -675 45 -47 197 -204 338 -349 141 -145 289 -297 327 -337 131
-135 570 -587 650 -669 95 -98 529 -545 634 -653 77 -80 523 -540 671 -692 47
-48 191 -197 320 -330 129 -134 310 -320 401 -414 92 -94 202 -208 245 -252
99 -102 541 -557 654 -674 245 -252 584 -602 654 -673 43 -45 192 -198 330
-341 138 -142 291 -300 339 -350 150 -154 340 -350 627 -646 151 -155 302
-311 335 -345 33 -34 175 -181 316 -326 142 -145 292 -300 334 -344 43 -44
189 -195 325 -335 136 -140 292 -301 346 -357 93 -96 464 -478 654 -673 173
-178 571 -589 684 -705 l116 -120 0 35 c1 49 2 8637 0 8680 -1 39 38 -3 -484
534 -138 142 -290 298 -337 347 -47 49 -157 162 -244 251 -255 264 -671 692
-816 841 -74 76 -135 142 -137 147 -2 4 265 277 592 606 l595 599 2109 0 2109
0 -1 -7764 -1 -7765 70 -71 c141 -145 595 -612 665 -685 40 -41 184 -190 320
-330 136 -140 283 -292 326 -336 125 -129 570 -588 980 -1010 133 -137 282
-290 330 -341 49 -50 198 -203 330 -340 133 -136 283 -291 334 -343 50 -52
199 -205 330 -340 131 -135 270 -279 310 -320 40 -41 190 -196 334 -344 329
-339 561 -578 662 -682 44 -45 189 -195 324 -334 135 -139 279 -287 320 -330
41 -43 186 -192 322 -331 135 -140 282 -291 326 -336 43 -46 82 -83 84 -83 3
0 5 4965 5 11034 0 6068 3 11038 6 11042 3 5 738 9 1664 9 l1658 0 5 -12767 5
-12767 230 -237 c127 -131 296 -305 376 -388 81 -83 182 -188 225 -232 44 -45
198 -204 344 -354 146 -150 299 -308 340 -350 41 -43 190 -196 330 -340 140
-145 284 -293 320 -330 36 -37 180 -186 320 -330 140 -144 289 -297 330 -340
41 -42 185 -191 320 -330 135 -138 285 -293 333 -344 49 -50 205 -210 346
-356 142 -146 282 -290 311 -320 29 -30 170 -176 314 -323 143 -148 295 -304
336 -347 41 -43 190 -196 330 -340 140 -145 289 -297 330 -340 41 -42 184
-189 316 -326 133 -137 283 -292 334 -344 168 -174 250 -257 265 -270 13 -11
15 2135 15 19369 l0 19381 -11312 0 -11313 -1 -873 -877z"/>
<path d="M34730 32613 c0 -10536 2 -19154 4 -19152 3 2 1436 1433 3185 3179
l3181 3175 0 7232 0 7233 1088 0 1087 0 -2 -6146 -1 -6147 221 221 c1138 1134
4262 4253 6366 6355 l2584 2582 -1172 3 c-1106 2 -1171 3 -1172 20 -1 22 -1
3072 0 3095 1 16 139 17 2743 17 l2743 0 1070 1069 c588 588 1864 1862 2835
2831 1778 1774 5550 5543 5550 5545 0 2 -129 133 -809 823 -245 249 -527 536
-626 637 -99 100 -387 393 -640 649 -253 257 -536 545 -630 641 -93 95 -375
381 -625 635 -250 254 -536 544 -635 645 -99 100 -390 396 -646 656 -257 261
-543 551 -635 646 -146 148 -764 776 -1289 1308 -673 683 -1131 1148 -1246
1266 l-136 139 -11197 0 -11196 0 0 -19157z m19856 12282 c108 -110 319 -325
471 -478 239 -243 273 -280 261 -294 -7 -9 -791 -794 -1743 -1744 l-1730
-1729 -5372 0 -5373 0 0 2218 c0 1220 2 2221 4 2223 2 2 2993 4 6645 4 l6641
0 196 -200z"/>
</g>
</svg>
